<svg width="433" height="358" viewBox="0 0 433 358" fill="none" xmlns="http://www.w3.org/2000/svg">
<g opacity="0.1">
<path d="M243.915 17.2537C254.506 19.659 268.289 29.1816 284.789 48.4918C282.616 49.4104 280.944 50.8851 280.173 52.9245C279.069 55.8444 280.115 59.1187 282.414 61.989C284.726 64.8745 288.391 67.4785 292.846 69.1636C297.301 70.8486 301.771 71.3215 305.414 70.6883C306.999 70.4128 308.455 69.9208 309.684 69.2101C321.47 74.5818 333.727 75.3495 345.735 75.817C346.54 75.8483 347.343 75.8783 348.145 75.9082L348.149 75.9084C367.121 76.6172 385.259 77.2949 400.451 94.5255C406.796 101.722 409.617 108.782 409.554 115.305C409.491 121.821 406.547 127.921 401.128 133.205C390.266 143.797 369.543 151.007 342.921 151.391C290.043 147.898 257.689 122.753 239.534 95.8897C230.449 82.4459 224.918 68.5674 222.158 56.7505C220.778 50.8421 220.094 45.459 220 40.9118C219.906 36.3525 220.408 32.6813 221.364 30.1695C223.331 25.0037 226.24 21.1676 229.984 18.9269C233.716 16.6925 238.363 15.9927 243.915 17.2537Z" fill="#68C9BA"/>
<path d="M305.157 69.2105C306.198 69.0295 307.141 68.7546 307.972 68.3951C300.903 64.8855 294.019 59.631 287.475 51.6921C286.918 51.0163 286.364 50.3515 285.813 49.6976C283.689 50.4855 282.209 51.7824 281.576 53.4551C280.735 55.678 281.456 58.3939 283.585 61.0511C285.702 63.693 289.128 66.1538 293.376 67.7606C297.624 69.3674 301.822 69.7902 305.157 69.2105Z" fill="#68C9BA"/>
<path d="M288.632 50.738C295.308 58.8374 302.335 64.077 309.569 67.5026C310.572 66.7843 311.296 65.8878 311.69 64.8453C312.531 62.6225 311.81 59.9065 309.681 57.2494C307.564 54.6074 304.138 52.1467 299.89 50.5399C295.642 48.9331 291.444 48.5102 288.109 49.09C287.861 49.133 287.619 49.1814 287.383 49.235C287.798 49.73 288.214 50.231 288.632 50.738Z" fill="#68C9BA"/>
<path fill-rule="evenodd" clip-rule="evenodd" d="M93.3172 0.00012207C68.8923 0.00012207 48.0422 17.6466 44.0049 41.7355L0.764719 299.736C-4.34535 330.226 19.1616 358 50.0769 358H383C410.614 358 433 335.614 433 308V50.0001C433 22.3859 410.614 0.00012207 383 0.00012207H93.3172ZM218.5 40.9426C218.405 36.2873 218.91 32.4003 219.963 29.6359C222.013 24.2495 225.105 20.0993 229.213 17.6399C233.332 15.1741 238.386 14.4598 244.247 15.7909C255.4 18.3238 269.577 28.2797 286.308 47.9615C286.806 47.8208 287.322 47.7043 287.852 47.6122C291.495 46.979 295.965 47.4518 300.42 49.1369C304.875 50.8219 308.54 53.4259 310.852 56.3115C313.152 59.1818 314.198 62.4561 313.093 65.376C312.674 66.4837 311.989 67.4249 311.103 68.2008C322.365 73.1237 334.104 73.863 345.794 74.3181C346.634 74.3508 347.474 74.382 348.314 74.4132L348.318 74.4133C367.206 75.1147 385.95 75.8106 401.576 93.5335C408.093 100.926 411.121 108.329 411.054 115.319C410.986 122.315 407.818 128.777 402.176 134.279C390.921 145.254 369.737 152.51 342.913 152.891L342.883 152.892L342.853 152.89C289.462 149.371 256.69 123.954 238.292 96.7296C229.099 83.1275 223.497 69.0786 220.698 57.0916C219.298 51.0981 218.596 45.6101 218.5 40.9426Z" fill="#68C9BA"/>
</g>
</svg>
